<svg width="165" height="137" viewBox="0 0 165 137" fill="none" xmlns="http://www.w3.org/2000/svg">
<path d="M161.309 7.13568e-05L153.494 8.50081L164.763 11.0182L161.309 7.13568e-05ZM71.7192 54.5578L71.8271 55.552L71.7192 54.5578ZM49.6614 130.26L49.1487 129.401L49.6614 130.26ZM-45.5444 123.178C-45.8319 124.136 -45.8319 124.136 -45.8319 124.136C-45.8319 124.136 -45.8318 124.136 -45.8318 124.136C-45.8317 124.136 -45.8316 124.136 -45.8315 124.136C-45.8313 124.136 -45.831 124.136 -45.8306 124.136C-45.8299 124.136 -45.8287 124.137 -45.8273 124.137C-45.8244 124.138 -45.8201 124.139 -45.8145 124.141C-45.8033 124.144 -45.7868 124.149 -45.7649 124.156C-45.7212 124.169 -45.6564 124.188 -45.571 124.213C-45.4003 124.264 -45.1476 124.338 -44.8178 124.433C-44.1583 124.623 -43.1908 124.899 -41.9559 125.24L-41.4231 123.313C-42.6501 122.974 -43.61 122.7 -44.2625 122.511C-44.5887 122.417 -44.8381 122.344 -45.0055 122.295C-45.0892 122.27 -45.1524 122.251 -45.1945 122.239C-45.2156 122.233 -45.2313 122.228 -45.2418 122.225C-45.247 122.223 -45.2508 122.222 -45.2533 122.221C-45.2546 122.221 -45.2555 122.221 -45.2561 122.22C-45.2564 122.22 -45.2566 122.22 -45.2567 122.22C-45.2568 122.22 -45.2568 122.22 -45.2568 122.22C-45.2568 122.22 -45.2568 122.22 -45.2568 122.22C-45.2568 122.22 -45.2568 122.22 -45.5444 123.178ZM-34.0715 127.32C-31.7061 127.916 -29.0553 128.56 -26.1869 129.22L-25.7386 127.271C-28.5922 126.614 -31.2295 125.973 -33.5827 125.38L-34.0715 127.32ZM-18.2389 130.958C-15.6728 131.489 -13.0043 132.012 -10.2683 132.51L-9.91029 130.542C-12.6289 130.048 -15.2816 129.528 -17.8333 128.999L-18.2389 130.958ZM-2.25078 133.856C0.415623 134.265 3.11255 134.636 5.81059 134.957L6.04665 132.971C3.37314 132.653 0.69855 132.285 -1.94803 131.879L-2.25078 133.856ZM13.9159 135.755C16.6714 135.965 19.3984 136.107 22.0642 136.163L22.1062 134.163C19.4819 134.108 16.792 133.969 14.0683 133.761L13.9159 135.755ZM30.2437 136.038C33.0969 135.877 35.8323 135.584 38.4001 135.132L38.0537 133.162C35.5771 133.598 32.9214 133.884 30.1313 134.041L30.2437 136.038ZM46.4088 132.953C47.7528 132.421 49.0128 131.812 50.1741 131.118L49.1487 129.401C48.0911 130.033 46.9294 130.596 45.6723 131.094L46.4088 132.953ZM50.1741 131.118C51.3205 130.434 52.3699 129.7 53.3286 128.921L52.0673 127.369C51.1864 128.085 50.2162 128.764 49.1487 129.401L50.1741 131.118ZM58.4041 123.157C59.7568 120.949 60.6874 118.568 61.2953 116.073L59.3521 115.6C58.7864 117.922 57.9285 120.105 56.6987 122.113L58.4041 123.157ZM62.2442 108.553C62.3145 106.1 62.1934 103.589 61.9548 101.063L59.9636 101.251C60.1967 103.719 60.3124 106.145 60.245 108.495L62.2442 108.553ZM60.9921 93.6809C60.6041 91.2264 60.1691 88.7781 59.7541 86.3881L57.7836 86.7303C58.2005 89.1312 58.6317 91.558 59.0166 93.9932L60.9921 93.6809ZM58.5904 79.1301C58.2416 76.5842 58.0022 74.1597 57.9581 71.8967L55.9585 71.9357C56.0047 74.3056 56.2545 76.8142 56.6089 79.4015L58.5904 79.1301ZM58.6948 64.874C59.3393 62.5786 60.4403 60.6541 62.1616 59.1482L60.8447 57.643C58.7817 59.4478 57.4994 61.733 56.7693 64.3334L58.6948 64.874ZM68.2995 56.1617C69.3655 55.8972 70.5382 55.6919 71.8271 55.552L71.6113 53.5637C70.2437 53.7122 68.9814 53.9319 67.818 54.2205L68.2995 56.1617ZM71.8271 55.552C73.1927 55.4038 74.5377 55.2463 75.8624 55.0798L75.6131 53.0954C74.2996 53.2604 72.9658 53.4166 71.6113 53.5637L71.8271 55.552ZM83.7962 53.9398C86.5169 53.4978 89.1437 53.0161 91.6799 52.4983L91.2798 50.5387C88.7706 51.051 86.1702 51.5279 83.4755 51.9657L83.7962 53.9398ZM99.4858 50.7231C102.18 50.0447 104.759 49.3234 107.228 48.5646L106.64 46.6528C104.205 47.4013 101.659 48.1134 98.9973 48.7837L99.4858 50.7231ZM114.858 45.9777C117.47 45.0038 119.94 43.9864 122.274 42.9337L121.452 41.1104C119.159 42.1444 116.731 43.145 114.159 44.1037L114.858 45.9777ZM129.509 39.3379C131.993 37.9785 134.29 36.5809 136.415 35.1599L135.303 33.4974C133.228 34.8849 130.981 36.2519 128.549 37.5835L129.509 39.3379ZM142.899 30.3406C145.114 28.5076 147.078 26.6646 148.821 24.842L147.375 23.46C145.686 25.2264 143.779 27.0163 141.623 28.7998L142.899 30.3406ZM154.038 18.6179C155.816 16.1765 157.216 13.8471 158.318 11.7148L156.541 10.7969C155.484 12.8426 154.137 15.0848 152.421 17.4405L154.038 18.6179Z" fill="#5D5CD6"/>
</svg>
