<svg width="18" height="17" viewBox="0 0 18 17" fill="none" xmlns="http://www.w3.org/2000/svg">
<path fill-rule="evenodd" clip-rule="evenodd" d="M2.95833 0.9375C1.75596 0.9375 0.78125 1.86091 0.78125 3C0.78125 4.13909 1.75596 5.0625 2.95833 5.0625C4.1607 5.0625 5.13542 4.13909 5.13542 3C5.13542 1.86091 4.1607 0.9375 2.95833 0.9375ZM1.96875 3C1.96875 2.48223 2.4118 2.0625 2.95833 2.0625C3.50487 2.0625 3.94792 2.48223 3.94792 3C3.94792 3.51777 3.50487 3.9375 2.95833 3.9375C2.4118 3.9375 1.96875 3.51777 1.96875 3Z" fill="black"/>
<path fill-rule="evenodd" clip-rule="evenodd" d="M0.78125 6C0.78125 5.68934 1.04708 5.4375 1.375 5.4375H4.54167C4.86959 5.4375 5.13542 5.68934 5.13542 6V15.75C5.13542 16.0607 4.86959 16.3125 4.54167 16.3125H1.375C1.04708 16.3125 0.78125 16.0607 0.78125 15.75V6ZM1.96875 6.5625V15.1875H3.94792V6.5625H1.96875Z" fill="black"/>
<path fill-rule="evenodd" clip-rule="evenodd" d="M6.32292 6C6.32292 5.68934 6.58875 5.4375 6.91667 5.4375H10.0833C10.4113 5.4375 10.6771 5.68934 10.6771 6V6.32552L11.0217 6.18561C11.6141 5.94507 12.2477 5.79423 12.8884 5.73905C15.0852 5.54985 17.0104 7.18528 17.0104 9.28519V15.75C17.0104 16.0607 16.7446 16.3125 16.4167 16.3125H13.25C12.9221 16.3125 12.6562 16.0607 12.6562 15.75V10.5C12.6562 10.2514 12.552 10.0129 12.3664 9.83709C12.1808 9.66127 11.9291 9.5625 11.6667 9.5625C11.4042 9.5625 11.1525 9.66127 10.9669 9.83709C10.7813 10.0129 10.6771 10.2514 10.6771 10.5V15.75C10.6771 16.0607 10.4113 16.3125 10.0833 16.3125H6.91667C6.58875 16.3125 6.32292 16.0607 6.32292 15.75V6ZM7.51042 6.5625V15.1875H9.48958V10.5C9.48958 9.95299 9.71895 9.42839 10.1272 9.04159C10.5355 8.6548 11.0893 8.4375 11.6667 8.4375C12.2441 8.4375 12.7978 8.6548 13.2061 9.04159C13.6144 9.42839 13.8437 9.95299 13.8437 10.5V15.1875H15.8229V9.28519C15.8229 7.8569 14.508 6.7292 12.9959 6.85943C12.4781 6.90402 11.9663 7.02605 11.4895 7.21965L10.3172 7.69559C10.1338 7.77007 9.9231 7.75226 9.75648 7.64817C9.58986 7.54408 9.48958 7.36765 9.48958 7.17857V6.5625H7.51042Z" fill="black"/>
</svg>
